<?xml version="1.0" standalone="no"?>
<!DOCTYPE svg PUBLIC "-//W3C//DTD SVG 20010904//EN"
 "http://www.w3.org/TR/2001/REC-SVG-20010904/DTD/svg10.dtd">
<svg version="1.0" xmlns="http://www.w3.org/2000/svg"
 width="2048.000000pt" height="2048.000000pt" viewBox="0 0 2048.000000 2048.000000"
 preserveAspectRatio="xMidYMid meet">
<metadata>
Created by potrace 1.14, written by Peter Selinger 2001-2017
</metadata>
<g transform="translate(0.000000,2048.000000) scale(0.100000,-0.100000)"
fill="#000000" stroke="none">
<path d="M8470 19360 c-821 -17 -1851 -55 -2680 -100 -549 -30 -1418 -84
-1552 -96 l-68 -6 0 -9029 0 -9029 2958 0 c2935 0 3276 3 3737 35 3060 212
4834 1434 5309 3659 114 529 156 1114 126 1746 -60 1277 -372 2188 -955 2789
-477 492 -1252 910 -2130 1150 -298 82 -763 174 -1068 211 -54 7 -96 14 -95
16 2 1 86 21 188 44 1282 292 2248 826 2823 1562 577 739 877 1611 904 2623
31 1217 -329 2202 -1069 2920 -447 435 -1026 772 -1747 1019 -770 264 -1631
411 -2791 477 -246 14 -1384 19 -1890 9z m1600 -270 c1431 -110 2411 -575
3072 -1457 348 -465 574 -1046 677 -1738 37 -247 52 -443 58 -765 22 -1199
-206 -2181 -669 -2882 -202 -306 -411 -530 -693 -743 -455 -343 -1020 -563
-1706 -665 -379 -56 -278 -54 -2456 -57 l-2013 -4 0 4074 0 4074 328 32 c776
76 1466 120 2191 141 345 10 1025 4 1211 -10z m420 -8580 c1095 -67 1935 -326
2540 -781 285 -214 481 -454 647 -789 330 -669 476 -1557 460 -2800 -7 -552
-35 -921 -102 -1355 -162 -1034 -522 -1862 -1044 -2399 -152 -156 -274 -257
-451 -375 -507 -337 -1154 -540 -1955 -615 -332 -32 -623 -36 -2427 -36
l-1818 0 0 4580 0 4580 1993 0 c1227 0 2055 -4 2157 -10z"/>
</g>
</svg>
