<svg width="78" height="22" viewBox="0 0 78 22" fill="none" xmlns="http://www.w3.org/2000/svg">
<path d="M0.913195 2.0867C3.02682 1.94094 4.89446 1.86805 6.51612 1.86805C11.0167 1.86805 13.267 3.37128 13.267 6.37773C13.267 7.50742 12.939 8.48224 12.283 9.30218C11.6271 10.1039 10.5794 10.6505 9.13993 10.9421C10.5247 11.1061 11.618 11.5251 12.4197 12.1993C13.2214 12.8735 13.6223 14.0487 13.6223 15.725C13.6223 19.2417 11.372 21 6.87143 21H0.913195V2.0867ZM3.1817 20.7267H6.87143C8.49309 20.7267 9.64101 20.3076 10.3152 19.4694C11.0076 18.6131 11.3538 17.3103 11.3538 15.5611C11.3538 13.8119 11.0076 12.6457 10.3152 12.0626C9.62279 11.4796 8.5933 11.1698 7.22674 11.1334H3.1817V20.7267ZM6.51612 2.14137C5.45931 2.14137 4.34783 2.20514 3.1817 2.33269V10.8601H7.22674C9.79588 10.7507 11.0805 9.27485 11.0805 6.43239C11.0805 5.0476 10.6978 3.99079 9.93254 3.26195C9.16726 2.5149 8.02846 2.14137 6.51612 2.14137ZM22.6775 21.1093C20.7643 21.1093 19.2064 20.5627 18.0038 19.4694C16.8013 18.3762 16.2 16.6908 16.2 14.4131C16.2 12.1355 16.8195 10.3681 18.0585 9.11086C19.3157 7.85362 20.901 7.225 22.8141 7.225C24.7456 7.225 26.3126 7.77163 27.5151 8.86488C28.7177 9.95813 29.319 11.6436 29.319 13.9212C29.319 16.1988 28.6904 17.9662 27.4331 19.2235C26.1941 20.4807 24.6089 21.1093 22.6775 21.1093ZM22.8688 7.44365C21.484 7.44365 20.3361 8.06316 19.4251 9.30218C18.514 10.523 18.0585 12.2357 18.0585 14.4405C18.0585 16.627 18.4776 18.2486 19.3157 19.3055C20.1539 20.3623 21.2654 20.8907 22.6502 20.8907C24.0349 20.8907 25.1829 20.2803 26.0939 19.0595C27.005 17.8205 27.4605 16.1077 27.4605 13.9212C27.4605 11.7165 27.0414 10.0857 26.2032 9.02887C25.3651 7.97206 24.2536 7.44365 22.8688 7.44365ZM42.8218 21C42.0747 21 41.5007 20.836 41.0999 20.508C40.7172 20.1801 40.5168 19.8521 40.4986 19.5241L40.4713 19.0595V10.4774C40.4713 9.03798 40.0977 8.11782 39.3507 7.71696C38.968 7.53475 38.4943 7.44365 37.9295 7.44365C36.7633 7.44365 35.7156 7.90828 34.7863 8.83755C33.8571 9.74859 33.3924 10.5685 33.3924 11.2974V21H31.4793V7.33432H33.3924V10.4501C33.7022 9.6666 34.2762 8.93776 35.1143 8.26359C35.9525 7.5712 36.8726 7.225 37.8748 7.225C38.8769 7.225 39.6878 7.32521 40.3073 7.52564C40.945 7.70785 41.4096 7.97206 41.7012 8.31825C42.1567 8.8831 42.3845 9.61194 42.3845 10.5048V19.0595C42.3845 19.5879 42.4847 19.9979 42.6851 20.2894C42.9038 20.5627 43.1224 20.7085 43.3411 20.7267L43.6417 20.7813H44.489V21H42.8218ZM47.9765 14.3312C47.9765 16.5905 48.3682 18.2486 49.1517 19.3055C49.9535 20.3623 51.0012 20.8907 52.2949 20.8907C54.1169 20.8907 55.7386 20.6174 57.1598 20.0707L57.2418 20.2621C55.7842 20.8269 54.1352 21.1093 52.2949 21.1093C50.4728 21.1093 48.9878 20.5627 47.8398 19.4694C46.6919 18.3762 46.118 16.6908 46.118 14.4131C46.118 12.1355 46.7193 10.3681 47.9218 9.11086C49.1244 7.85362 50.655 7.225 52.5135 7.225C54.0076 7.225 55.2649 7.67141 56.2852 8.56424C57.3056 9.45706 57.8158 10.7781 57.8158 12.5273C57.8158 12.6184 57.8158 12.7095 57.8158 12.8006H48.0585C48.0038 13.2926 47.9765 13.8027 47.9765 14.3312ZM55.9573 12.5819C55.939 10.8327 55.6019 9.53905 54.946 8.70089C54.29 7.86273 53.4428 7.44365 52.4042 7.44365C51.3656 7.44365 50.4363 7.89917 49.6164 8.81022C48.8147 9.72126 48.3045 10.9785 48.0858 12.5819H55.9573ZM63.7473 21C62.1439 21 61.1326 20.5809 60.7135 19.7428C60.6224 19.5605 60.5769 19.3966 60.5769 19.2508V0.528818H62.4901V19.0595C62.4901 19.5879 62.5903 19.9979 62.7907 20.2894C63.0094 20.5627 63.228 20.7085 63.4467 20.7267L63.7473 20.7813H64.5946V21H63.7473ZM70.6457 21C69.0423 21 68.031 20.5809 67.6119 19.7428C67.5208 19.5605 67.4753 19.3966 67.4753 19.2508V0.528818H69.3885V19.0595C69.3885 19.5879 69.4887 19.9979 69.6891 20.2894C69.9078 20.5627 70.1264 20.7085 70.3451 20.7267L70.6457 20.7813H71.493V21H70.6457ZM76.327 21C75.58 21 75.006 20.836 74.6051 20.508C74.2225 20.1801 74.0221 19.8521 74.0038 19.5241L73.9765 19.0595V7.33432H75.8897V19.0595C75.8897 19.5879 75.9899 19.9979 76.1904 20.2894C76.409 20.5627 76.6185 20.7085 76.819 20.7267L77.147 20.7813H77.9942V21H76.327ZM74.1405 4.27321C73.9219 4.05456 73.8125 3.78125 73.8125 3.45327C73.8125 3.1253 73.9219 2.85198 74.1405 2.63333C74.3592 2.39646 74.6325 2.27802 74.9604 2.27802C75.2884 2.27802 75.5617 2.39646 75.7804 2.63333C76.0173 2.85198 76.1357 3.1253 76.1357 3.45327C76.1357 3.78125 76.0173 4.05456 75.7804 4.27321C75.5617 4.49186 75.2884 4.60119 74.9604 4.60119C74.6325 4.60119 74.3592 4.49186 74.1405 4.27321Z" fill="#111B2B"/>
</svg>
