<svg xmlns="http://www.w3.org/2000/svg" width="29" height="34" fill="none"><path d="M9.854 28.317c-.495.495-1.125.832-1.811.967a3.52 3.52 0 0 1-2.041-.207 3.53 3.53 0 0 1-1.581-1.31c-.386-.584-.59-1.27-.587-1.971s.214-1.385.606-1.965a3.53 3.53 0 0 1 1.594-1.295 3.52 3.52 0 0 1 2.043-.187c.684.142 1.311.484 1.801.984.653.666 1.017 1.563 1.012 2.497s-.377 1.828-1.036 2.487z" fill="#d5465f"/><path d="M9.923 10.623c-.494.495-1.125.832-1.81.968a3.52 3.52 0 0 1-2.041-.206 3.53 3.53 0 0 1-1.582-1.31c-.386-.584-.591-1.27-.588-1.971s.214-1.385.605-1.966A3.53 3.53 0 0 1 6.1 4.843a3.52 3.52 0 0 1 2.043-.188c.684.142 1.312.484 1.802.983a3.54 3.54 0 0 1 1.013 2.497c-.004.934-.376 1.828-1.035 2.488z" fill="#47a1ff"/><path d="M22.574 23.377c-.835.832-1.826 1.491-2.916 1.938s-2.257.675-3.434.67a8.83 8.83 0 0 1-3.429-.688 8.85 8.85 0 0 1-2.896-1.966 3.53 3.53 0 0 0-1.143-.855 3.52 3.52 0 0 0-2.791-.085c-.447.177-.852.443-1.193.783a3.54 3.54 0 0 0-.786 1.192c-.178.447-.264.926-.251 1.407s.123.955.324 1.392.49.828.847 1.15a15.98 15.98 0 0 0 5.177 3.507c1.939.816 4.02 1.241 6.123 1.249s4.187-.399 6.132-1.2a15.98 15.98 0 0 0 5.205-3.466 3.54 3.54 0 0 0 .771-1.145c.179-.429.273-.889.275-1.353s-.087-.925-.262-1.356a3.54 3.54 0 0 0-.76-1.152 3.53 3.53 0 0 0-1.142-.773 3.52 3.52 0 0 0-2.702-.013 3.53 3.53 0 0 0-1.149.762z" fill="#eb5a68"/><path d="M9.923 10.623a8.96 8.96 0 0 1 6.346-2.604c2.376.008 4.651.961 6.328 2.649a3.53 3.53 0 0 0 1.142.86 3.52 3.52 0 0 0 2.796.091 3.53 3.53 0 0 0 1.196-.784 3.54 3.54 0 0 0 .787-1.195c.178-.448.264-.928.25-1.41s-.125-.957-.328-1.394a3.54 3.54 0 0 0-.852-1.15 15.95 15.95 0 0 0-5.17-3.508c-1.937-.816-4.016-1.241-6.117-1.25s-4.183.399-6.127 1.2a15.95 15.95 0 0 0-5.199 3.466c-.36.318-.652.707-.857 1.142s-.32.908-.337 1.389.064.96.239 1.409a3.54 3.54 0 0 0 .775 1.199c.337.343.74.613 1.185.794a3.52 3.52 0 0 0 2.791-.059 3.53 3.53 0 0 0 1.15-.844z" fill="#67b3ff"/><path d="M9.877 23.332c-.828-.838-1.483-1.832-1.928-2.924a8.99 8.99 0 0 1-.663-3.442c-.003-1.18.229-2.348.681-3.437s1.117-2.077 1.955-2.905a3.54 3.54 0 0 0 .852-1.146 3.55 3.55 0 0 0 .33-1.391c.015-.481-.069-.96-.245-1.408s-.442-.855-.781-1.196-.743-.609-1.189-.788a3.52 3.52 0 0 0-2.791.073 3.53 3.53 0 0 0-1.146.85C1.941 8.618.243 12.696.23 16.952s1.661 8.344 4.653 11.364c.319.358.708.647 1.143.849a3.52 3.52 0 0 0 2.785.081 3.53 3.53 0 0 0 1.19-.782 3.54 3.54 0 0 0 .785-1.189c.179-.446.265-.923.253-1.404a3.55 3.55 0 0 0-.32-1.39 3.54 3.54 0 0 0-.842-1.15z" fill="#ffda00"/></svg>
